<?xml version="1.0" encoding="utf-8"?>
<!-- Generator: Adobe Illustrator 24.1.2, SVG Export Plug-In . SVG Version: 6.00 Build 0)  -->
<svg version="1.1" id="Layer_1" xmlns="http://www.w3.org/2000/svg" xmlns:xlink="http://www.w3.org/1999/xlink" x="0px" y="0px"
	 viewBox="0 0 12 12" style="enable-background:new 0 0 12 12;" xml:space="preserve">
<path d="M0.4,8.6c0-0.2,0.2-0.4,0.4-0.4h1.5c0.2,0,0.4,0.2,0.4,0.4v1.5c0,0.2-0.2,0.4-0.4,0.4H0.8c-0.2,0-0.4-0.2-0.4-0.4V8.6z
	 M3.4,6.4C3.4,6.2,3.5,6,3.8,6h1.5c0.2,0,0.4,0.2,0.4,0.4v3.8c0,0.2-0.2,0.4-0.4,0.4H3.8c-0.2,0-0.4-0.2-0.4-0.4V6.4z M6.4,4.1
	c0-0.2,0.2-0.4,0.4-0.4h1.5c0.2,0,0.4,0.2,0.4,0.4v6c0,0.2-0.2,0.4-0.4,0.4H6.8c-0.2,0-0.4-0.2-0.4-0.4V4.1z M9.4,1.9
	c0-0.2,0.2-0.4,0.4-0.4h1.5c0.2,0,0.4,0.2,0.4,0.4v8.3c0,0.2-0.2,0.4-0.4,0.4H9.8c-0.2,0-0.4-0.2-0.4-0.4V1.9z"/>
</svg>
